<?xml version="1.0" standalone="no"?>
<!DOCTYPE svg PUBLIC "-//W3C//DTD SVG 20010904//EN"
 "http://www.w3.org/TR/2001/REC-SVG-20010904/DTD/svg10.dtd">
<svg version="1.0" xmlns="http://www.w3.org/2000/svg"
 width="623.000000pt" height="219.000000pt" viewBox="0 0 623.000000 219.000000"
 preserveAspectRatio="xMidYMid meet">

<g transform="translate(0.000000,219.000000) scale(0.100000,-0.100000)"
fill="#000000" stroke="none">
<path d="M860 2171 c-107 -23 -145 -39 -194 -83 -22 -20 -55 -44 -75 -54 -19
-11 -55 -38 -79 -61 -25 -24 -48 -43 -52 -43 -4 0 -17 -9 -30 -20 -12 -11 -27
-17 -31 -14 -5 3 -9 0 -9 -5 0 -6 -7 -11 -16 -11 -8 0 -13 -4 -10 -9 4 -5 -9
-19 -28 -30 -19 -12 -37 -28 -40 -37 -3 -8 -10 -13 -16 -9 -5 3 -18 -3 -29
-14 -11 -11 -22 -17 -24 -14 -7 7 -79 -101 -114 -172 -45 -89 -80 -193 -99
-292 -22 -120 -15 -374 15 -483 116 -427 448 -732 876 -805 80 -14 344 -15
2250 -13 l2160 3 100 28 c120 33 295 117 386 186 189 144 336 364 400 599 30
111 38 364 15 485 -77 410 -383 741 -788 853 -94 26 -288 42 -288 24 0 -15
-36 -21 -64 -11 -18 8 -26 7 -26 -1 0 -6 -8 -4 -18 5 -17 16 -173 17 -2053 16
-1920 0 -2039 -1 -2119 -18z"/>
</g>
</svg>
